<?xml version="1.0" encoding="UTF-8"?>
<svg xmlns="http://www.w3.org/2000/svg" xmlns:xlink="http://www.w3.org/1999/xlink" width="385.5pt" height="232.1pt" viewBox="0 0 385.5 232.1" version="1.1">
<defs>
<clipPath id="clip1">
  <path d="M 0 142 L 385.5 142 L 385.5 232 L 0 232 Z M 0 142 "/>
</clipPath>
</defs>
<g id="surface1">
<path style=" stroke:none;fill-rule:evenodd;fill:rgb(96.484375%,61.521912%,5.099487%);fill-opacity:1;" d="M 374.921875 59.070313 C 371.699219 55.128906 368.03125 51.679688 364.125 48.65625 C 360.222656 45.617188 356.046875 43.074219 351.746094 40.832031 C 349.398438 39.605469 347.007813 38.476563 344.582031 37.429688 C 344.386719 37.300781 344.207031 37.183594 344.066406 37.066406 C 343.554688 36.679688 343.46875 36.351563 344.195313 36.175781 C 345.457031 37.085938 346.917969 37.8125 348.414063 38.515625 C 349.882813 39.265625 351.433594 39.929688 352.757813 40.839844 C 352.75 39.859375 350.421875 38.28125 348.230469 36.871094 C 347.121094 36.175781 346.058594 35.519531 345.339844 34.964844 C 344.609375 34.417969 344.230469 33.972656 344.527344 33.691406 C 345.417969 33.898438 347.183594 35.476563 348.894531 36.789063 C 350.578125 38.15625 352.203125 39.296875 353.011719 38.632813 C 353.332031 38.371094 350.550781 36.625 349.132813 35.792969 C 351.398438 36.929688 353.464844 37.867188 355.128906 38.621094 C 355.976563 38.996094 356.734375 39.292969 357.394531 39.503906 C 358.042969 39.738281 358.589844 39.902344 359.015625 39.953125 C 359.882813 40.054688 360.277344 39.78125 360.042969 39.019531 C 359.8125 38.253906 358.953125 37.011719 357.21875 35.28125 C 360.046875 37.085938 363.324219 40.546875 366.257813 42.484375 C 366.261719 42.46875 366.257813 42.453125 366.257813 42.441406 C 364.90625 41.332031 362.761719 39.152344 361.421875 38.226563 C 363.058594 39.371094 364.609375 40.65625 366.175781 41.882813 C 366.105469 41.476563 365.992188 41.0625 365.859375 40.605469 C 364.8125 39.519531 363.738281 38.414063 362.453125 37.503906 C 363.542969 38.28125 364.59375 39.117188 365.652344 39.957031 C 365.242188 38.855469 364.71875 37.625 363.996094 36.433594 C 360.851563 32.546875 357.726563 28.554688 355.410156 27.140625 C 346.171875 21.351563 336.085938 16.742188 325.46875 13.648438 C 322.585938 12.804688 319.667969 12.082031 316.722656 11.464844 C 318.402344 11.050781 318.730469 10.375 316.386719 9.582031 C 317.546875 9.625 319.171875 10.070313 320.398438 9.957031 C 320.398438 9.953125 320.390625 9.945313 320.386719 9.9375 C 319.777344 9.898438 318.730469 9.683594 318.167969 9.652344 L 320.25 9.75 C 320.140625 9.609375 320.015625 9.46875 319.890625 9.328125 C 319.375 9.207031 318.855469 9.09375 318.320313 9.070313 L 319.699219 9.136719 C 319.386719 8.832031 319.015625 8.539063 318.628906 8.269531 C 318.925781 7.96875 318.933594 7.65625 318.519531 7.292969 C 321.992188 7.367188 327.222656 7.765625 327.539063 7.222656 C 328.019531 6.378906 328.980469 5.503906 331.058594 4.855469 C 333.140625 4.230469 336.363281 3.789063 341.386719 4.296875 C 342.359375 4.421875 343.449219 4.71875 344.558594 5.003906 C 345.65625 5.339844 346.78125 5.6875 347.8125 6.0625 C 349.882813 6.800781 351.617188 7.566406 352.339844 7.640625 C 352.855469 7.675781 352.875 7.535156 352.640625 7.273438 C 352.402344 7.023438 351.820313 6.648438 351.261719 6.289063 C 350.140625 5.539063 348.96875 4.871094 350.140625 4.941406 C 342.960938 2.390625 335.652344 1.128906 328.597656 0.542969 C 321.527344 -0.0390625 314.679688 0.00390625 307.996094 0.25 C 304.640625 0.339844 301.289063 0.554688 297.929688 0.734375 C 294.582031 1 291.21875 1.21875 287.859375 1.566406 C 281.136719 2.191406 274.394531 3.015625 267.601563 4.03125 C 266.464844 4.3125 264.496094 4.699219 261.90625 5.25 C 259.308594 5.757813 256.09375 6.4375 252.441406 7.214844 C 245.152344 8.800781 236.171875 10.964844 227.097656 13.570313 C 224.824219 14.203125 222.5625 14.917969 220.296875 15.582031 C 218.046875 16.296875 215.804688 17.007813 213.601563 17.710938 C 211.410156 18.449219 209.253906 19.179688 207.15625 19.882813 C 205.109375 20.605469 203.121094 21.300781 201.207031 21.976563 C 197.472656 23.277344 194.1875 24.308594 191.417969 24.996094 C 188.644531 25.675781 186.402344 26.011719 184.675781 26.191406 C 184.261719 26.257813 183.847656 26.320313 183.433594 26.367188 C 179.664063 26.746094 175.351563 26.875 171.046875 26.839844 C 166.75 26.8125 162.453125 26.710938 159.011719 26.710938 C 155.816406 26.835938 152.574219 26.949219 149.335938 26.894531 C 150.726563 27.519531 152.023438 28.101563 153.152344 28.613281 C 149.902344 28.050781 146.742188 27.3125 145.433594 27.367188 C 141.960938 26.964844 141.101563 27.140625 141.371094 27.804688 C 141.4375 27.96875 141.578125 28.144531 141.765625 28.351563 C 137.84375 27.691406 134.066406 27.117188 131.121094 26.757813 C 128.503906 26.558594 125.871094 26.351563 123.304688 25.9375 C 124.195313 26.640625 125.0625 27.292969 125.839844 27.882813 C 125.609375 27.824219 125.382813 27.761719 125.15625 27.707031 C 122.960938 26.90625 121.015625 26.039063 120.070313 25.957031 C 118.730469 25.5625 117.886719 25.34375 117.371094 25.34375 C 116.851563 25.332031 116.660156 25.519531 116.683594 25.84375 C 116.683594 25.9375 116.714844 26.050781 116.753906 26.171875 C 115.960938 26.121094 115.167969 26.066406 114.390625 25.957031 C 114.605469 26.425781 114.828125 26.875 115.046875 27.300781 C 114.753906 27.199219 114.453125 27.105469 114.171875 27 C 113.46875 26.546875 112.886719 26.191406 112.460938 26.1875 C 111.800781 25.9375 111.335938 25.835938 111.011719 25.855469 L 110.996094 25.855469 C 110.328125 25.617188 109.742188 25.390625 109.265625 25.1875 L 108.59375 24.957031 C 106.613281 24.136719 104.382813 23.347656 102.222656 22.597656 C 100.070313 21.820313 97.9375 21.195313 96.105469 20.828125 C 94.390625 20.570313 92.59375 20.382813 90.792969 20.1875 C 91.359375 20.828125 91.878906 21.445313 92.308594 22.011719 C 90.75 21.238281 89.1875 20.476563 88.417969 20.511719 C 84.707031 19.613281 86.085938 21.484375 86.742188 23.402344 C 87.398438 24.421875 85.683594 24.65625 86.894531 25.917969 C 85.820313 25.398438 85.316406 25.082031 84.257813 24.515625 C 84.054688 24.742188 84.917969 25.097656 85.667969 25.457031 C 86.425781 25.808594 87.105469 26.121094 86.507813 26.375 C 85.5625 25.707031 84.261719 25.40625 83.203125 24.839844 C 83.199219 25.746094 86.769531 27 86.269531 27.578125 C 85.578125 27.503906 83.734375 25.125 83.070313 25.890625 C 82.9375 26.039063 84 26.617188 84.53125 26.90625 C 81.089844 25.492188 78.792969 25.367188 81.339844 27.863281 C 80.292969 27.292969 78.992188 26.164063 77.808594 25.710938 C 77.808594 25.710938 77.8125 25.71875 77.8125 25.734375 C 78.351563 26.039063 79.21875 26.71875 79.730469 26.988281 L 77.84375 25.972656 C 77.878906 26.140625 77.925781 26.320313 77.980469 26.492188 C 78.398438 26.847656 78.832031 27.175781 79.324219 27.441406 L 78.066406 26.761719 C 78.230469 27.199219 78.449219 27.660156 78.71875 28.117188 C 79.929688 29.457031 80.964844 31.023438 81.785156 31.460938 C 85.972656 33.835938 90.269531 36.058594 94.671875 38.050781 C 95.847656 38.800781 97.023438 39.535156 98.238281 40.222656 C 96.710938 39.476563 95.347656 38.84375 94.121094 38.371094 C 92.878906 37.921875 91.816406 37.550781 90.894531 37.34375 C 89.042969 36.941406 87.835938 37.042969 87.460938 37.515625 C 89.125 38.269531 88.414063 39.21875 90.109375 39.929688 C 88.027344 39.117188 85.945313 38.207031 84.53125 37.761719 C 82.808594 36.914063 81.21875 36.34375 79.90625 36.351563 C 80.898438 36.925781 81.902344 37.476563 82.902344 38.023438 C 82.96875 38.144531 83.070313 38.308594 83.210938 38.484375 C 78.644531 36.882813 75.042969 33.601563 70.8125 31.40625 C 70.367188 32.089844 70.136719 32.449219 68.449219 31.863281 C 71.378906 33.722656 76.050781 36.050781 78.863281 38.109375 L 78.234375 39.167969 C 74.980469 37.792969 70.933594 34.40625 67.769531 32.886719 C 67.550781 33.234375 67.097656 33.914063 66.875 34.257813 C 66.652344 34.597656 65.160156 33.667969 63.691406 32.703125 C 65.152344 33.667969 68.132813 35.539063 69.628906 36.453125 C 69.410156 36.800781 68.964844 37.488281 68.746094 37.832031 C 68.53125 38.183594 67.019531 37.257813 65.523438 36.308594 C 65.078125 36.992188 63.125 36.726563 64.398438 38.015625 C 65.910156 38.972656 67.421875 39.910156 68.953125 40.835938 C 62.644531 37.484375 58.535156 37.136719 57.820313 38.167969 C 58.535156 38.425781 58.839844 38.765625 59.066406 39.089844 C 59.046875 39.175781 59.03125 39.277344 59.035156 39.394531 C 59.023438 39.519531 59.070313 39.71875 59.144531 39.945313 C 54.449219 38.292969 50.441406 37.210938 55.738281 41.203125 C 57.476563 42.398438 59.234375 43.574219 61.003906 44.726563 C 61.109375 45.257813 60.921875 45.441406 60.136719 44.992188 C 62.125 47.378906 64.324219 49.511719 66.578125 51.554688 C 68.863281 53.523438 71.21875 55.402344 73.671875 57.027344 C 78.558594 60.371094 83.707031 62.996094 88.941406 65.105469 C 94.160156 67.21875 99.566406 68.753906 104.882813 69.847656 C 109.511719 70.816406 114.097656 71.40625 118.613281 71.78125 C 120.09375 72.097656 121.59375 72.367188 123.117188 72.589844 C 127.75 73.234375 132.261719 73.378906 136.585938 73.285156 C 140.921875 73.191406 145.023438 72.890625 149.054688 72.515625 C 158.035156 71.714844 166.933594 70.515625 175.738281 69.019531 C 176.5 68.921875 177.261719 68.84375 178.03125 68.738281 C 178.523438 68.605469 179.144531 68.457031 179.855469 68.292969 C 180.367188 68.199219 180.875 68.105469 181.386719 68.007813 C 182.730469 67.988281 184.078125 67.957031 185.417969 67.886719 C 189.398438 67.730469 193.339844 67.351563 197.246094 66.855469 C 205.050781 65.851563 212.652344 64.214844 220.03125 62.230469 C 227.039063 60.347656 233.851563 58.144531 240.519531 55.808594 C 240.140625 56.898438 239.351563 57.996094 237.84375 58.988281 C 236.75 59.519531 234.773438 59.261719 234.460938 59.703125 C 233.960938 60.414063 236.285156 60.523438 235.789063 61.226563 C 240.144531 60.414063 244.355469 59.429688 248.578125 58.398438 C 252.8125 57.410156 257.054688 56.402344 261.457031 55.699219 C 262.867188 55.003906 268.632813 53.738281 274.75 52.878906 C 280.859375 51.976563 287.304688 51.519531 289.953125 51.554688 L 290.429688 51.496094 C 293.308594 51.433594 296.785156 51.128906 299.195313 50.257813 C 299.714844 50.019531 300.230469 49.753906 300.746094 49.488281 C 303.921875 50.199219 307.027344 51.097656 309.746094 51.941406 C 311.386719 52.507813 312.886719 53.042969 314.175781 53.515625 C 315.4375 54.03125 316.492188 54.480469 317.261719 54.824219 L 317.839844 55.019531 C 321.191406 56.445313 324.761719 58.0625 327.265625 58.902344 C 328.511719 59.167969 329.804688 59.445313 331.023438 59.847656 C 330.898438 59.230469 330.738281 58.628906 330.601563 58.074219 C 331.578125 58.929688 332.320313 59.847656 332.929688 59.960938 C 334.097656 60.675781 334.664063 60.679688 335.019531 60.214844 C 335.378906 59.761719 335.453125 58.863281 335.632813 57.9375 C 335.511719 56.871094 337.085938 57.1875 336.570313 55.667969 C 337.289063 56.492188 337.613281 56.921875 338.25 57.816406 C 338.53125 57.695313 337.953125 57.054688 337.453125 56.484375 C 336.921875 55.9375 336.476563 55.40625 337.089844 55.367188 C 337.644531 56.300781 338.707031 57.003906 339.304688 57.996094 C 339.414063 57.792969 339.355469 57.480469 339.195313 57.113281 C 339.015625 56.757813 338.757813 56.359375 338.496094 55.960938 C 337.953125 55.210938 337.421875 54.542969 337.773438 54.335938 C 338.046875 54.515625 338.429688 55.292969 338.769531 55.996094 C 339.109375 56.703125 339.480469 57.304688 339.941406 57.140625 C 340.152344 57.054688 339.457031 56.085938 339.09375 55.601563 C 339.742188 56.277344 340.320313 56.871094 340.792969 57.367188 C 341.300781 57.839844 341.691406 58.222656 342.015625 58.371094 C 342.335938 58.535156 342.570313 58.488281 342.667969 58.160156 C 342.761719 57.828125 342.753906 57.1875 342.449219 56.277344 C 343.183594 57.378906 343.621094 59.230469 344.261719 60.445313 C 344.269531 60.445313 344.269531 60.4375 344.273438 60.429688 C 344.023438 59.789063 343.765625 58.59375 343.441406 58.039063 C 343.824219 58.730469 344.085938 59.484375 344.394531 60.210938 C 344.472656 60.046875 344.546875 59.863281 344.613281 59.671875 C 344.472656 59.085938 344.347656 58.464844 344.042969 57.910156 C 344.300781 58.378906 344.492188 58.890625 344.707031 59.386719 C 344.835938 58.894531 344.945313 58.320313 344.957031 57.726563 C 344.640625 55.679688 344.25 53.519531 343.566406 52.640625 C 343.023438 51.882813 342.445313 51.164063 341.851563 50.46875 C 342.738281 50.671875 343.632813 50.875 344.496094 51.128906 C 345.636719 51.480469 346.761719 51.867188 347.828125 52.3125 C 350.886719 53.820313 354.265625 56.546875 356.75 58.636719 C 357.238281 57.65625 359.164063 58.285156 361.058594 58.902344 C 362.929688 59.515625 364.679688 60.210938 364.835938 58.863281 C 365.246094 59.28125 365.714844 59.757813 366.1875 60.230469 C 366.625 60.722656 367.078125 61.222656 367.5 61.652344 C 368.335938 62.519531 369.074219 63.113281 369.351563 63.019531 C 370.214844 62.691406 371.332031 62.574219 372.878906 63.15625 C 374.445313 63.710938 376.363281 65.066406 378.613281 67.792969 C 378.996094 68.355469 379.371094 69.039063 379.722656 69.738281 C 379.890625 70.09375 380.066406 70.453125 380.234375 70.816406 C 380.375 71.179688 380.507813 71.558594 380.644531 71.90625 C 381.15625 73.324219 381.582031 74.527344 381.949219 74.902344 C 382.199219 75.15625 382.332031 75.078125 382.398438 74.832031 C 382.464844 74.585938 382.417969 74.101563 382.386719 73.640625 C 382.316406 72.703125 382.234375 71.742188 382.8125 72.347656 C 380.839844 67.511719 378.160156 62.992188 374.921875 59.070313 Z M 374.921875 59.070313 "/>
<path style=" stroke:none;fill-rule:evenodd;fill:rgb(100%,100%,100%);fill-opacity:1;" d="M 118.65625 54.28125 C 120 45.785156 121.351563 37.25 122.699219 28.6875 C 125.449219 29.460938 128.203125 30.105469 130.953125 30.636719 L 130.953125 68.398438 C 129.082031 68.039063 127.210938 67.621094 125.34375 67.152344 L 125.34375 40.070313 C 123.976563 48.761719 122.609375 57.410156 121.242188 66.035156 C 119.375 65.480469 117.503906 64.878906 115.632813 64.195313 C 114.160156 54.769531 112.683594 45.300781 111.207031 35.789063 L 111.207031 62.488281 C 109.480469 61.78125 107.753906 61.023438 106.03125 60.195313 L 106.03125 22.429688 C 108.78125 23.742188 111.535156 24.910156 114.285156 25.9375 C 115.738281 35.425781 117.199219 44.875 118.65625 54.28125 Z M 118.65625 54.28125 "/>
<path style=" stroke:none;fill-rule:evenodd;fill:rgb(100%,100%,100%);fill-opacity:1;" d="M 146.324219 58.28125 C 148.234375 58.382813 150.140625 58.4375 152.042969 58.460938 C 151.089844 52.082031 150.140625 45.703125 149.1875 39.304688 C 148.234375 45.648438 147.277344 51.972656 146.324219 58.28125 Z M 159.867188 70.28125 C 157.867188 70.378906 155.875 70.429688 153.875 70.441406 C 153.535156 68.160156 153.195313 65.871094 152.851563 63.589844 C 150.425781 63.585938 147.992188 63.507813 145.570313 63.363281 C 145.226563 65.628906 144.886719 67.886719 144.546875 70.152344 C 142.730469 70.023438 140.910156 69.863281 139.097656 69.648438 C 141.109375 57.300781 143.121094 44.890625 145.136719 32.429688 C 148.03125 32.613281 150.925781 32.691406 153.824219 32.675781 C 155.832031 45.261719 157.847656 57.789063 159.867188 70.28125 Z M 159.867188 70.28125 "/>
<path style=" stroke:none;fill-rule:evenodd;fill:rgb(100%,100%,100%);fill-opacity:1;" d="M 173.941406 36.65625 L 173.941406 63.625 C 175.054688 63.492188 176.171875 63.335938 177.289063 63.175781 C 179.175781 62.890625 180.308594 61.738281 180.308594 59.046875 L 180.308594 39.40625 C 180.308594 36.707031 179.175781 35.925781 177.289063 36.191406 C 176.171875 36.359375 175.054688 36.511719 173.941406 36.65625 Z M 168.007813 31.933594 C 171.136719 31.628906 174.261719 31.242188 177.394531 30.792969 C 183.328125 29.902344 186.242188 32.613281 186.242188 38.667969 L 186.242188 57.761719 C 186.242188 63.792969 183.328125 67.664063 177.394531 68.554688 C 174.261719 69.007813 171.136719 69.394531 168.007813 69.699219 Z M 168.007813 31.933594 "/>
<path style=" stroke:none;fill-rule:evenodd;fill:rgb(100%,100%,100%);fill-opacity:1;" d="M 201.34375 42.164063 C 204.058594 41.554688 206.773438 40.929688 209.488281 40.289063 L 209.488281 45.675781 C 206.773438 46.328125 204.058594 46.949219 201.34375 47.550781 L 201.34375 58.613281 C 204.757813 57.855469 208.175781 57.054688 211.589844 56.25 L 211.589844 61.640625 C 206.195313 62.921875 200.804688 64.15625 195.410156 65.292969 L 195.410156 27.535156 C 200.804688 26.398438 206.195313 25.15625 211.589844 23.878906 L 211.589844 29.277344 C 208.175781 30.085938 204.757813 30.882813 201.34375 31.640625 Z M 201.34375 42.164063 "/>
<path style=" stroke:none;fill-rule:evenodd;fill:rgb(100%,100%,100%);fill-opacity:1;" d="M 247.570313 33.457031 C 246.851563 40.304688 246.128906 47.148438 245.414063 53.992188 C 242.699219 54.515625 239.984375 55.085938 237.265625 55.667969 C 235.863281 43.386719 234.460938 31.109375 233.058594 18.835938 C 234.980469 18.402344 236.90625 17.984375 238.832031 17.574219 C 239.890625 27.273438 240.953125 36.984375 242.015625 46.6875 C 242.964844 36.566406 243.921875 26.441406 244.875 16.339844 C 246.777344 15.957031 248.683594 15.605469 250.589844 15.273438 C 251.582031 25.09375 252.570313 34.917969 253.558594 44.757813 C 254.585938 34.589844 255.605469 24.433594 256.632813 14.269531 C 258.359375 14.023438 260.085938 13.769531 261.8125 13.554688 C 260.410156 26.320313 259.007813 39.105469 257.601563 51.890625 C 254.980469 52.28125 252.355469 52.710938 249.726563 53.183594 C 249.011719 46.609375 248.289063 40.03125 247.570313 33.457031 Z M 247.570313 33.457031 "/>
<path style=" stroke:none;fill-rule:evenodd;fill:rgb(100%,100%,100%);fill-opacity:1;" d="M 270.171875 12.6875 C 272.148438 12.519531 274.125 12.402344 276.101563 12.320313 L 276.101563 50.078125 C 274.125 50.160156 272.148438 50.289063 270.171875 50.445313 Z M 270.171875 12.6875 "/>
<path style=" stroke:none;fill-rule:evenodd;fill:rgb(100%,100%,100%);fill-opacity:1;" d="M 284.195313 12.199219 C 290.304688 12.296875 296.421875 12.820313 302.539063 13.886719 L 302.539063 19.285156 C 300.464844 18.921875 298.398438 18.621094 296.332031 18.378906 L 296.332031 50.746094 C 294.355469 50.515625 292.375 50.347656 290.398438 50.210938 L 290.398438 17.84375 C 288.328125 17.710938 286.265625 17.628906 284.195313 17.601563 Z M 284.195313 12.199219 "/>
<path style=" stroke:none;fill-rule:evenodd;fill:rgb(100%,100%,100%);fill-opacity:1;" d="M 316.558594 55.101563 C 314.582031 54.46875 312.601563 53.902344 310.625 53.382813 L 310.625 15.625 C 312.601563 16.140625 314.582031 16.707031 316.558594 17.34375 L 316.558594 33.527344 C 318.804688 34.25 321.054688 35.066406 323.300781 35.96875 L 323.300781 19.785156 C 325.3125 20.585938 327.328125 21.472656 329.34375 22.429688 L 329.34375 60.195313 C 327.328125 59.230469 325.3125 58.351563 323.300781 57.542969 L 323.300781 41.359375 C 321.054688 40.460938 318.804688 39.640625 316.558594 38.925781 Z M 316.558594 55.101563 "/>
<g clip-path="url(#clip1)" clip-rule="nonzero">
<path style=" stroke:none;fill-rule:evenodd;fill:rgb(0%,50.976563%,17.651367%);fill-opacity:1;" d="M 375.269531 211.53125 C 378.230469 212.957031 382.378906 215.492188 385.535156 217.0625 C 385.53125 217.050781 385.519531 217.039063 385.511719 217.035156 C 383.953125 216.148438 381.277344 214.535156 379.828125 213.800781 C 381.605469 214.703125 383.386719 215.652344 385.167969 216.628906 C 384.902344 216.335938 384.601563 216.023438 384.285156 215.703125 C 382.964844 214.875 381.640625 214.078125 380.253906 213.363281 C 381.433594 213.96875 382.613281 214.597656 383.800781 215.238281 C 382.953125 214.441406 381.972656 213.582031 380.886719 212.714844 C 376.746094 209.910156 372.8125 207.089844 370.53125 206.066406 C 362.921875 202.515625 355.285156 199.5625 347.644531 197.121094 C 347.148438 196.871094 346.800781 196.617188 346.652344 196.371094 C 346.78125 196.394531 346.910156 196.425781 347.035156 196.460938 C 347.046875 196.300781 347.121094 196.140625 347.253906 195.980469 C 347.773438 196.035156 348.535156 196.199219 349.304688 196.382813 C 349.3125 196.226563 349.382813 196.050781 349.5 195.890625 C 349.707031 195.910156 349.914063 195.945313 350.113281 195.957031 C 350.539063 195.910156 350.566406 195.613281 350.222656 195.207031 C 350.929688 194.691406 351.933594 194.25 352.871094 193.96875 C 353 193.984375 353.121094 193.996094 353.222656 194.023438 C 354.753906 193.679688 363.765625 194.453125 365.285156 194.378906 C 366.1875 194.496094 366.378906 194.183594 366.070313 193.613281 C 368.878906 193.679688 362.386719 188.277344 356.882813 184.972656 C 357.09375 184.53125 357.097656 184.035156 356.6875 183.605469 C 355.445313 183.054688 352.839844 182.398438 351.539063 181.582031 C 351.636719 181.207031 352.226563 180.914063 352.574219 180.546875 C 354.761719 181.230469 356.953125 181.914063 359.152344 182.582031 C 356.828125 181.507813 354.890625 180.480469 352.832031 179.636719 C 353.578125 178.445313 355.296875 177.21875 355.953125 177.375 C 356.820313 176.878906 361.957031 176.179688 362.824219 175.769531 C 365.394531 175.472656 357.84375 168.316406 354.457031 166.589844 C 352.769531 165.539063 354.492188 164.917969 354.515625 163.921875 C 352.800781 163.863281 351.972656 162.679688 350.265625 162.664063 C 350.269531 162.3125 345.179688 160.976563 342.625 160.582031 C 342.625 160.582031 342.605469 160.589844 342.574219 160.597656 C 342.507813 160.570313 342.433594 160.554688 342.375 160.519531 C 341.476563 159.933594 340.585938 159.355469 340.660156 158.703125 C 335.976563 157.777344 332.359375 155.953125 329.75 153.695313 C 329.117188 153.046875 326.3125 152.519531 323.773438 152.121094 C 308.261719 147.5625 291.59375 146.972656 277.082031 144.554688 C 276.1875 144.203125 274.398438 143.519531 273.503906 143.1875 C 266.167969 142.167969 256.808594 142.835938 249.285156 143.988281 C 247.679688 144.238281 246.191406 145.082031 244.992188 145.984375 C 240.097656 147.503906 235.179688 148.949219 230.257813 150.320313 C 224.449219 151.910156 218.636719 153.382813 212.828125 154.738281 C 212.886719 155.066406 213.582031 155.257813 212.652344 155.621094 C 211.167969 156.125 209.75 156.242188 208.339844 156.351563 C 206.921875 156.441406 205.511719 156.515625 204.019531 156.980469 L 203.902344 157.5625 C 203.585938 157.589844 203.257813 157.617188 202.9375 157.644531 C 202.9375 157.609375 202.941406 157.558594 202.941406 157.492188 C 202.402344 157.488281 201.671875 157.636719 200.941406 157.808594 C 199.457031 157.914063 197.945313 158 196.425781 158.101563 C 194.113281 158.476563 191.8125 158.945313 189.507813 159.261719 L 186.058594 159.800781 L 182.605469 160.269531 C 182.746094 160.453125 182.824219 160.628906 182.367188 160.734375 C 180.457031 161.109375 177.773438 161.070313 175.007813 161.191406 C 174.601563 161.253906 174.199219 161.304688 173.796875 161.347656 C 173.488281 161.480469 173.414063 161.671875 173.371094 161.792969 C 172.117188 161.808594 171.003906 161.800781 169.972656 161.777344 C 156.425781 163.246094 142.175781 163.234375 126.589844 162.886719 C 123.265625 163.046875 119.953125 163.226563 116.808594 163.082031 C 112.164063 162.761719 106.410156 161.488281 102.1875 160.277344 C 102.28125 161.292969 99.628906 161.34375 97.101563 161.265625 C 94.585938 161.1875 92.207031 161.015625 92.925781 162.335938 C 90 161.230469 85.792969 159.21875 85.34375 159.597656 C 84.675781 160.179688 83.585938 160.644531 81.660156 160.582031 C 79.738281 160.527344 76.980469 159.925781 73.09375 158.335938 C 70.109375 156.957031 66.207031 153.898438 65.078125 153.636719 C 63.277344 153.203125 68.082031 156.691406 66.289063 156.257813 C 71.367188 159.355469 76.644531 162.410156 82.269531 165.085938 C 87.894531 167.765625 93.898438 170.050781 100.210938 171.59375 C 104.496094 172.628906 108.714844 173.289063 112.847656 173.796875 C 93.042969 175.363281 73.347656 173.820313 53.558594 170.886719 C 59.804688 172.363281 64.449219 173.730469 70.75 174.058594 C 70.722656 174.398438 70.667969 175.074219 72.242188 175.230469 C 78.730469 176.109375 86.007813 176.210938 91.410156 176.550781 C 92.777344 176.859375 94.082031 177.101563 95.617188 176.996094 C 95.773438 177.019531 95.921875 177.046875 96.066406 177.070313 C 96.039063 177.425781 96.046875 177.984375 96.636719 177.984375 C 97.738281 178.109375 98.894531 178.125 100.035156 178.125 C 101.1875 178.40625 102.722656 178.621094 105.039063 178.550781 C 103.464844 178.59375 101.894531 178.632813 100.324219 178.65625 C 100.300781 178.996094 100.253906 179.671875 100.253906 179.671875 C 102.765625 179.769531 105.53125 179.820313 108.347656 179.835938 C 108.789063 180.050781 109.355469 180.199219 110.171875 180.171875 C 109.515625 180.199219 108.863281 180.222656 108.207031 180.246094 C 108.179688 180.578125 108.128906 181.253906 108.128906 181.253906 C 110.726563 181.511719 113.980469 181.675781 116.582031 181.847656 C 116.582031 181.847656 116.535156 182.515625 116.511719 182.855469 C 116.949219 182.820313 117.378906 182.792969 117.8125 182.757813 C 112.746094 183.464844 105.765625 183.785156 101.511719 184.03125 C 101.492188 184.363281 101.445313 185.046875 101.421875 185.382813 C 102.46875 185.359375 103.519531 185.328125 104.570313 185.296875 C 104.554688 185.527344 104.539063 185.753906 104.523438 185.976563 C 95.078125 186.21875 87.214844 186.105469 77.773438 185.492188 C 79.347656 185.601563 82.492188 185.785156 84.070313 185.859375 C 84.042969 186.191406 84.015625 186.527344 85.589844 186.59375 C 79.292969 186.375 71.457031 185.382813 65.113281 185.214844 C 63.519531 185.328125 65.007813 186.59375 69.703125 187.453125 C 74.421875 187.945313 77.566406 188.195313 82.289063 188.460938 C 82.273438 188.691406 82.257813 188.910156 82.242188 189.144531 C 79.089844 188.992188 74.398438 188.277344 71.222656 188.277344 C 69.621094 188.472656 74.292969 189.601563 72.691406 189.785156 C 71.117188 189.628906 69.542969 189.46875 67.9375 189.617188 C 72.667969 190.171875 78.988281 190.371094 83.691406 190.902344 C 85.242188 191.304688 86.792969 191.695313 86.742188 192.363281 C 89.511719 192.355469 92.070313 192.453125 94.4375 192.640625 C 94.296875 192.683594 94.160156 192.730469 94.023438 192.792969 C 94.570313 192.800781 95.175781 192.792969 95.800781 192.777344 C 97.949219 192.992188 99.933594 193.292969 101.726563 193.675781 C 101.816406 193.839844 101.867188 194.003906 101.851563 194.207031 C 102.472656 194.136719 103.058594 194.132813 103.628906 194.148438 C 104.273438 194.324219 104.894531 194.515625 105.484375 194.707031 C 105.824219 194.847656 106.488281 194.917969 107.351563 194.941406 C 108.199219 195.316406 108.960938 195.800781 109.625 196.378906 C 109.773438 196.542969 110.09375 196.628906 110.515625 196.671875 C 108.789063 197.511719 106.886719 198.160156 105.949219 198.152344 C 103.9375 198.902344 92.074219 200.636719 90.058594 201.117188 C 89.144531 201.214844 88.773438 201.453125 88.832031 201.769531 C 59.171875 203.042969 29.660156 197.089844 0.0664063 185.089844 C 7.71875 188.769531 13.433594 191.515625 21.09375 193.609375 C 21.085938 193.929688 21.058594 194.617188 22.972656 195.183594 C 28.710938 197.070313 34.933594 198.527344 40.433594 199.699219 C 45.9375 200.878906 50.710938 201.769531 53.550781 202.859375 C 55.449219 203.460938 57.3125 204.777344 63.054688 205.367188 C 61.136719 205.175781 59.226563 204.960938 57.3125 204.71875 C 57.292969 205.050781 57.261719 205.722656 57.261719 205.722656 C 64.898438 207.054688 74.445313 208.125 82.078125 208.574219 C 82.078125 208.574219 82.039063 209.242188 82.019531 209.585938 C 83.296875 209.621094 84.570313 209.648438 85.839844 209.675781 C 89.53125 212.191406 68.539063 211.394531 58.96875 210.304688 C 58.953125 210.640625 58.921875 211.308594 58.90625 211.648438 C 60.179688 211.796875 61.453125 211.929688 62.726563 212.058594 C 62.714844 212.289063 62.707031 212.5 62.691406 212.730469 C 51.238281 211.523438 41.699219 209.898438 30.242188 206.984375 C 32.152344 207.492188 35.972656 208.398438 37.886719 208.804688 C 37.871094 209.132813 37.859375 209.476563 39.761719 209.882813 C 32.128906 208.304688 22.597656 205.40625 14.949219 203.371094 C 13.027344 203.023438 14.902344 204.761719 20.605469 206.925781 C 26.328125 208.703125 30.136719 209.722656 35.863281 211.046875 C 35.855469 211.269531 35.847656 211.488281 35.835938 211.707031 C 32.019531 210.832031 26.316406 209.027344 22.488281 208.175781 C 20.566406 207.953125 26.265625 210.316406 24.34375 210.078125 C 22.4375 209.519531 20.53125 208.9375 18.609375 208.644531 C 24.332031 210.550781 31.96875 212.222656 37.675781 213.816406 C 39.566406 214.566406 41.453125 215.273438 41.429688 215.949219 C 50.96875 217.488281 58.542969 219.425781 64.171875 221.625 C 64.652344 221.855469 65.644531 222.050781 66.945313 222.226563 C 67.914063 222.425781 69.296875 222.628906 70.171875 222.75 C 60.96875 221.820313 55.820313 221.808594 64.074219 224.410156 C 61.175781 223.933594 57.109375 222.742188 54.027344 222.257813 C 54.03125 222.261719 54.042969 222.265625 54.050781 222.285156 C 55.574219 222.628906 58.199219 223.351563 59.613281 223.605469 C 57.875 223.292969 56.128906 222.933594 54.386719 222.566406 C 54.648438 222.773438 54.945313 222.980469 55.257813 223.179688 C 56.546875 223.578125 57.847656 223.925781 59.203125 224.183594 C 58.050781 223.972656 56.890625 223.734375 55.734375 223.492188 C 56.566406 224.011719 57.53125 224.53125 58.597656 225.042969 C 62.65625 226.488281 66.511719 228.0625 68.742188 228.386719 C 86.722656 231.34375 104.804688 232.023438 122.828125 231.199219 C 122.898438 230.796875 121.976563 230.449219 123.484375 230.179688 C 128.226563 229.554688 131.875 230.648438 136.617188 229.886719 C 136.75 229.667969 136.886719 229.4375 137.023438 229.214844 C 140.636719 229.195313 144.398438 229.207031 148.238281 229.128906 C 155.382813 228.3125 162.488281 227.316406 169.578125 226.214844 C 169.417969 225.984375 169.347656 225.789063 170.0625 225.609375 C 173.015625 225.066406 177.070313 224.765625 181.28125 224.265625 C 181.90625 224.148438 182.535156 224.023438 183.152344 223.910156 C 183.644531 223.703125 183.789063 223.457031 183.878906 223.296875 C 185.785156 223.066406 187.476563 222.898438 189.039063 222.757813 C 209.871094 218.6875 231.039063 214.152344 253.96875 211.0625 C 258.84375 210.117188 263.722656 209.265625 268.386719 208.832031 C 275.292969 208.316406 284.019531 208.710938 290.722656 209.035156 C 290.417969 208.167969 292.519531 207.550781 295.113281 207.035156 C 301.722656 207.371094 307.183594 207.957031 310.816406 208.453125 C 311.449219 208.519531 312.085938 208.578125 312.71875 208.652344 C 324.132813 210.085938 338.019531 212.875 347.761719 215.011719 C 352.246094 215.824219 356.820313 216.726563 361.371094 217.835938 C 359.328125 216.667969 357.4375 215.617188 355.800781 214.671875 C 360.359375 216.300781 364.921875 218.171875 366.714844 218.507813 C 376.53125 221.789063 371.15625 218.296875 367.582031 215.199219 C 364.964844 213.417969 368.714844 213.917969 364.578125 211.53125 C 367.609375 212.800781 369.128906 213.46875 372.175781 214.851563 C 372.59375 214.3125 362.769531 211.152344 364.992188 211.0625 C 367.898438 212.464844 371.214844 213.519531 374.25 214.957031 C 373.292969 213.539063 363.753906 210.03125 364.3125 209.472656 C 365.976563 209.875 372.734375 214.199219 373.433594 213.492188 C 373.578125 213.324219 370.535156 211.917969 369.015625 211.253906 C 378.417969 215.070313 383.691406 216.875 375.269531 211.53125 Z M 375.269531 211.53125 "/>
</g>
<path style=" stroke:none;fill-rule:evenodd;fill:rgb(0%,50.976563%,17.651367%);fill-opacity:1;" d="M 58.90625 221.417969 C 58.109375 221.378906 57.324219 221.339844 56.542969 221.28125 C 57.710938 221.542969 58.714844 221.738281 59.230469 221.734375 C 59.308594 221.625 59.175781 221.515625 58.90625 221.417969 Z M 58.90625 221.417969 "/>
<path style=" stroke:none;fill-rule:evenodd;fill:rgb(100%,100%,100%);fill-opacity:1;" d="M 105.246094 162.738281 C 107.9375 164.03125 110.625 165.191406 113.308594 166.21875 L 113.308594 217.511719 C 110.625 216.484375 107.9375 215.328125 105.246094 214.035156 Z M 105.246094 162.738281 "/>
<path style=" stroke:none;fill-rule:evenodd;fill:rgb(100%,100%,100%);fill-opacity:1;" d="M 133.402344 183.023438 L 133.402344 220.179688 C 130.984375 219.789063 128.566406 219.320313 126.148438 218.753906 L 126.148438 167.449219 C 129.519531 168.25 132.886719 168.859375 136.257813 169.300781 C 139.023438 179.910156 141.78125 190.410156 144.539063 200.804688 L 144.539063 170.09375 C 146.933594 170.242188 149.328125 170.3125 151.71875 170.320313 L 151.71875 221.621094 C 148.960938 221.613281 146.203125 221.515625 143.441406 221.328125 C 140.097656 208.710938 136.75 195.949219 133.402344 183.023438 Z M 133.402344 183.023438 "/>
<path style=" stroke:none;fill-rule:evenodd;fill:rgb(100%,100%,100%);fill-opacity:1;" d="M 183.519531 167.214844 C 186.207031 166.738281 188.894531 166.214844 191.582031 165.667969 L 191.582031 216.964844 C 188.894531 217.511719 186.207031 218.03125 183.519531 218.519531 Z M 183.519531 167.214844 "/>
<path style=" stroke:none;fill-rule:evenodd;fill:rgb(100%,100%,100%);fill-opacity:1;" d="M 211.953125 175.183594 L 211.953125 212.335938 C 209.535156 212.921875 207.113281 213.496094 204.695313 214.0625 L 204.695313 162.769531 C 208.066406 161.988281 211.4375 161.171875 214.8125 160.355469 C 217.566406 169.921875 220.332031 179.492188 223.085938 189.070313 L 223.085938 158.359375 C 225.484375 157.789063 227.878906 157.222656 230.269531 156.667969 L 230.269531 207.96875 C 227.507813 208.605469 224.753906 209.253906 221.992188 209.917969 C 218.644531 198.335938 215.300781 186.773438 211.953125 175.183594 Z M 211.953125 175.183594 "/>
<path style=" stroke:none;fill-rule:evenodd;fill:rgb(100%,100%,100%);fill-opacity:1;" d="M 251.441406 159.660156 L 251.441406 196.3125 C 252.957031 196.050781 254.472656 195.808594 255.988281 195.574219 C 258.550781 195.1875 260.09375 193.675781 260.09375 190.019531 L 260.09375 163.34375 C 260.09375 159.683594 258.550781 158.550781 255.988281 158.933594 C 254.472656 159.160156 252.957031 159.410156 251.441406 159.660156 Z M 243.382813 153.835938 C 247.632813 152.988281 251.882813 152.226563 256.132813 151.582031 C 264.199219 150.398438 268.152344 154.648438 268.152344 162.835938 L 268.152344 188.777344 C 268.152344 197.003906 264.199219 201.703125 256.132813 202.882813 C 251.882813 203.519531 247.632813 204.285156 243.382813 205.132813 Z M 243.382813 153.835938 "/>
<path style=" stroke:none;fill-rule:evenodd;fill:rgb(100%,100%,100%);fill-opacity:1;" d="M 280.605469 149.585938 C 283.292969 149.582031 285.980469 149.660156 288.667969 149.824219 L 288.667969 201.128906 C 285.980469 200.960938 283.292969 200.886719 280.605469 200.890625 Z M 280.605469 149.585938 "/>
<path style=" stroke:none;fill-rule:evenodd;fill:rgb(100%,100%,100%);fill-opacity:1;" d="M 309.546875 188.171875 C 312.136719 188.851563 314.726563 189.65625 317.316406 190.570313 C 316.023438 181.453125 314.726563 172.386719 313.433594 163.34375 C 312.136719 171.59375 310.84375 179.871094 309.546875 188.171875 Z M 327.945313 211.25 C 325.230469 209.949219 322.523438 208.777344 319.808594 207.738281 C 319.347656 204.464844 318.878906 201.191406 318.417969 197.917969 C 315.117188 196.714844 311.820313 195.703125 308.523438 194.875 C 308.058594 197.859375 307.597656 200.84375 307.132813 203.839844 C 304.664063 203.257813 302.199219 202.765625 299.726563 202.355469 C 302.464844 185.707031 305.199219 169.160156 307.9375 152.734375 C 311.867188 153.703125 315.804688 154.921875 319.734375 156.421875 C 322.472656 174.554688 325.207031 192.828125 327.945313 211.25 Z M 327.945313 211.25 "/>
<path style=" stroke:none;fill-rule:evenodd;fill:rgb(6.272888%,16.479492%,51.367188%);fill-opacity:1;" d="M 116.519531 85.464844 L 116.519531 110.925781 C 118.382813 111.398438 120.242188 111.824219 122.105469 112.207031 C 125.867188 112.972656 127.90625 111.535156 127.90625 106.164063 L 127.90625 94.886719 C 127.90625 89.503906 125.867188 87.503906 122.105469 86.742188 C 120.242188 86.359375 118.382813 85.933594 116.519531 85.464844 Z M 139.722656 97.003906 L 139.722656 106.78125 C 139.722656 118.71875 133.925781 125.261719 122.105469 122.945313 C 120.242188 122.566406 118.382813 122.140625 116.519531 121.667969 L 116.519531 149.921875 C 112.578125 148.925781 108.640625 147.726563 104.699219 146.296875 L 104.699219 71.097656 C 110.503906 73.191406 116.304688 74.804688 122.105469 75.996094 C 133.925781 78.3125 139.722656 84.867188 139.722656 97.003906 Z M 139.722656 97.003906 "/>
<path style=" stroke:none;fill-rule:evenodd;fill:rgb(6.272888%,16.479492%,51.367188%);fill-opacity:1;" d="M 168.046875 87.796875 L 168.046875 110.894531 C 169.585938 110.773438 171.128906 110.628906 172.664063 110.484375 C 177.070313 110.042969 179.757813 107.753906 179.757813 101.734375 L 179.757813 94.328125 C 179.757813 88.949219 177.933594 86.835938 173.742188 87.265625 C 171.839844 87.464844 169.945313 87.644531 168.046875 87.796875 Z M 180.9375 150.910156 C 180.296875 149.046875 179.867188 147.929688 179.863281 141.796875 L 179.863281 129.980469 C 179.863281 122.988281 177.503906 120.742188 172.128906 121.277344 C 170.769531 121.410156 169.40625 121.527344 168.046875 121.644531 L 168.046875 152.261719 C 164.105469 152.578125 160.167969 152.796875 156.230469 152.886719 L 156.230469 77.679688 C 162.171875 77.539063 168.113281 77.113281 174.0625 76.492188 C 186.316406 75.148438 191.578125 79.820313 191.578125 91.480469 L 191.578125 97.378906 C 191.578125 105.113281 189.105469 110.578125 183.839844 113.78125 C 189.75 115.429688 191.683594 120.785156 191.683594 128.640625 L 191.683594 140.242188 C 191.683594 143.890625 191.792969 146.554688 192.976563 149.171875 C 188.960938 149.800781 184.953125 150.390625 180.9375 150.910156 Z M 180.9375 150.910156 "/>
<path style=" stroke:none;fill-rule:evenodd;fill:rgb(6.272888%,16.479492%,51.367188%);fill-opacity:1;" d="M 210.160156 70.992188 C 214.101563 70.277344 218.039063 69.550781 221.980469 68.839844 L 221.980469 144.042969 C 218.039063 144.765625 214.101563 145.492188 210.160156 146.207031 Z M 210.160156 70.992188 "/>
<path style=" stroke:none;fill-rule:evenodd;fill:rgb(6.272888%,16.479492%,51.367188%);fill-opacity:1;" d="M 253.136719 74.585938 L 253.136719 128.304688 C 255.355469 128.023438 257.578125 127.773438 259.796875 127.542969 C 263.558594 127.171875 265.816406 125.082031 265.816406 119.703125 L 265.816406 80.589844 C 265.816406 75.21875 263.558594 73.441406 259.796875 73.828125 C 257.578125 74.050781 255.355469 74.300781 253.136719 74.585938 Z M 241.316406 65.507813 C 247.546875 64.535156 253.785156 63.679688 260.015625 63.058594 C 271.832031 61.902344 277.636719 68.554688 277.632813 80.546875 L 277.632813 118.585938 C 277.636719 130.660156 271.832031 137.117188 260.015625 138.273438 C 253.785156 138.894531 247.546875 139.75 241.316406 140.71875 Z M 241.316406 65.507813 "/>
<path style=" stroke:none;fill-rule:evenodd;fill:rgb(6.272888%,16.479492%,51.367188%);fill-opacity:1;" d="M 307.714844 95.882813 C 313.125 96.863281 318.53125 98.191406 323.941406 99.933594 L 323.941406 110.675781 C 318.53125 108.9375 313.125 107.609375 307.714844 106.628906 L 307.714844 128.648438 C 314.519531 129.882813 321.324219 131.671875 328.128906 134.148438 L 328.128906 144.886719 C 317.382813 140.984375 306.640625 138.792969 295.898438 137.789063 L 295.898438 62.582031 C 306.640625 63.574219 317.382813 65.777344 328.128906 69.671875 L 328.128906 80.421875 C 321.324219 77.949219 314.519531 76.160156 307.714844 74.933594 Z M 307.714844 95.882813 "/>
</g>
</svg>
